<svg width="101" height="101" viewBox="0 0 101 101" fill="none" xmlns="http://www.w3.org/2000/svg">
<g style="mix-blend-mode:hard-light" opacity="0.5" filter="url(#filter0_dddddd_1381_51)">
<rect x="17" y="17" width="67" height="67" rx="10.05" fill="black"/>
<rect x="17.335" y="17.335" width="66.33" height="66.33" rx="9.715" stroke="#B1F2FF" stroke-width="0.67"/>
</g>
<path d="M67.6917 37.8537H62.84V41.4925C62.84 41.8429 62.771 42.1899 62.6369 42.5137C62.5028 42.8374 62.3062 43.1316 62.0584 43.3794C61.8106 43.6272 61.5164 43.8237 61.1927 43.9578C60.8689 44.0919 60.5219 44.1609 60.1715 44.1609C59.8211 44.1609 59.4741 44.0919 59.1503 43.9578C58.8266 43.8237 58.5324 43.6272 58.2846 43.3794C58.0368 43.1316 57.8403 42.8374 57.7062 42.5137C57.5721 42.1899 57.503 41.8429 57.503 41.4925V37.8537H43.3723V41.4925C43.3723 42.2002 43.0912 42.8789 42.5907 43.3794C42.0903 43.8798 41.4116 44.1609 40.7038 44.1609C39.9961 44.1609 39.3174 43.8798 38.8169 43.3794C38.3165 42.8789 38.0354 42.2002 38.0354 41.4925V37.8537H33.1836C32.895 37.8504 32.6086 37.905 32.3414 38.0143C32.0742 38.1236 31.8317 38.2854 31.6281 38.4901C31.4246 38.6948 31.2642 38.9382 31.1563 39.206C31.0485 39.4738 30.9954 39.7604 31.0003 40.0491V67.1947C30.9955 67.4782 31.0466 67.7599 31.1507 68.0237C31.2547 68.2875 31.4097 68.5282 31.6069 68.7321C31.804 68.936 32.0393 69.099 32.2995 69.2119C32.5596 69.3248 32.8394 69.3854 33.123 69.3901H67.6917C67.9753 69.3854 68.2551 69.3248 68.5152 69.2119C68.7754 69.099 69.0107 68.936 69.2078 68.7321C69.405 68.5282 69.56 68.2875 69.664 68.0237C69.7681 67.7599 69.8192 67.4782 69.8144 67.1947V40.0491C69.8192 39.7655 69.7681 39.4838 69.664 39.22C69.56 38.9562 69.405 38.7155 69.2078 38.5117C69.0107 38.3078 68.7754 38.1447 68.5152 38.0318C68.2551 37.9189 67.9753 37.8584 67.6917 37.8537ZM40.7038 62.1125H38.278V59.6866H40.7038V62.1125ZM40.7038 56.0478H38.278V53.6219H40.7038V56.0478ZM40.7038 49.9831H38.278V47.5572H40.7038V49.9831ZM47.9815 62.1125H45.5556V59.6866H47.9815V62.1125ZM47.9815 56.0478H45.5556V53.6219H47.9815V56.0478ZM47.9815 49.9831H45.5556V47.5572H47.9815V49.9831ZM55.2591 62.1125H52.8332V59.6866H55.2591V62.1125ZM55.2591 56.0478H52.8332V53.6219H55.2591V56.0478ZM55.2591 49.9831H52.8332V47.5572H55.2591V49.9831ZM62.5367 62.1125H60.1109V59.6866H62.5367V62.1125ZM62.5367 56.0478H60.1109V53.6219H62.5367V56.0478ZM62.5367 49.9831H60.1109V47.5572H62.5367V49.9831Z" fill="white"/>
<path d="M40.7037 42.7035C41.0254 42.7035 41.3339 42.5757 41.5613 42.3483C41.7888 42.1208 41.9166 41.8123 41.9166 41.4906V34.2129C41.9166 33.8912 41.7888 33.5827 41.5613 33.3553C41.3339 33.1278 41.0254 33 40.7037 33C40.382 33 40.0735 33.1278 39.846 33.3553C39.6185 33.5827 39.4907 33.8912 39.4907 34.2129V41.4906C39.4907 41.8123 39.6185 42.1208 39.846 42.3483C40.0735 42.5757 40.382 42.7035 40.7037 42.7035Z" fill="white"/>
<path d="M60.1104 42.7035C60.4321 42.7035 60.7406 42.5757 60.9681 42.3483C61.1956 42.1208 61.3233 41.8123 61.3233 41.4906V34.2129C61.3233 33.8912 61.1956 33.5827 60.9681 33.3553C60.7406 33.1278 60.4321 33 60.1104 33C59.7887 33 59.4802 33.1278 59.2527 33.3553C59.0253 33.5827 58.8975 33.8912 58.8975 34.2129V41.4906C58.8975 41.8123 59.0253 42.1208 59.2527 42.3483C59.4802 42.5757 59.7887 42.7035 60.1104 42.7035Z" fill="white"/>
<defs>
<filter id="filter0_dddddd_1381_51" x="0.115999" y="0.115999" width="100.768" height="100.768" filterUnits="userSpaceOnUse" color-interpolation-filters="sRGB">
<feFlood flood-opacity="0" result="BackgroundImageFix"/>
<feColorMatrix in="SourceAlpha" type="matrix" values="0 0 0 0 0 0 0 0 0 0 0 0 0 0 0 0 0 0 127 0" result="hardAlpha"/>
<feOffset/>
<feGaussianBlur stdDeviation="0.201"/>
<feColorMatrix type="matrix" values="0 0 0 0 0.52549 0 0 0 0 0.964706 0 0 0 0 0.996078 0 0 0 1 0"/>
<feBlend mode="normal" in2="BackgroundImageFix" result="effect1_dropShadow_1381_51"/>
<feColorMatrix in="SourceAlpha" type="matrix" values="0 0 0 0 0 0 0 0 0 0 0 0 0 0 0 0 0 0 127 0" result="hardAlpha"/>
<feOffset/>
<feGaussianBlur stdDeviation="0.402"/>
<feColorMatrix type="matrix" values="0 0 0 0 0.52549 0 0 0 0 0.964706 0 0 0 0 0.996078 0 0 0 1 0"/>
<feBlend mode="normal" in2="effect1_dropShadow_1381_51" result="effect2_dropShadow_1381_51"/>
<feColorMatrix in="SourceAlpha" type="matrix" values="0 0 0 0 0 0 0 0 0 0 0 0 0 0 0 0 0 0 127 0" result="hardAlpha"/>
<feOffset/>
<feGaussianBlur stdDeviation="1.407"/>
<feColorMatrix type="matrix" values="0 0 0 0 0.52549 0 0 0 0 0.964706 0 0 0 0 0.996078 0 0 0 1 0"/>
<feBlend mode="normal" in2="effect2_dropShadow_1381_51" result="effect3_dropShadow_1381_51"/>
<feColorMatrix in="SourceAlpha" type="matrix" values="0 0 0 0 0 0 0 0 0 0 0 0 0 0 0 0 0 0 127 0" result="hardAlpha"/>
<feOffset/>
<feGaussianBlur stdDeviation="2.814"/>
<feColorMatrix type="matrix" values="0 0 0 0 0.52549 0 0 0 0 0.964706 0 0 0 0 0.996078 0 0 0 1 0"/>
<feBlend mode="normal" in2="effect3_dropShadow_1381_51" result="effect4_dropShadow_1381_51"/>
<feColorMatrix in="SourceAlpha" type="matrix" values="0 0 0 0 0 0 0 0 0 0 0 0 0 0 0 0 0 0 127 0" result="hardAlpha"/>
<feOffset/>
<feGaussianBlur stdDeviation="4.824"/>
<feColorMatrix type="matrix" values="0 0 0 0 0.52549 0 0 0 0 0.964706 0 0 0 0 0.996078 0 0 0 1 0"/>
<feBlend mode="normal" in2="effect4_dropShadow_1381_51" result="effect5_dropShadow_1381_51"/>
<feColorMatrix in="SourceAlpha" type="matrix" values="0 0 0 0 0 0 0 0 0 0 0 0 0 0 0 0 0 0 127 0" result="hardAlpha"/>
<feOffset/>
<feGaussianBlur stdDeviation="8.442"/>
<feColorMatrix type="matrix" values="0 0 0 0 0.52549 0 0 0 0 0.964706 0 0 0 0 0.996078 0 0 0 1 0"/>
<feBlend mode="normal" in2="effect5_dropShadow_1381_51" result="effect6_dropShadow_1381_51"/>
<feBlend mode="normal" in="SourceGraphic" in2="effect6_dropShadow_1381_51" result="shape"/>
</filter>
</defs>
</svg>
