<svg width="1352" height="120" viewBox="0 0 1352 120" fill="none" xmlns="http://www.w3.org/2000/svg">
<path d="M92.6988 91C87.3655 91 83.3322 89.5 80.5988 86.5C77.8655 83.4333 76.4988 79.0667 76.4988 73.4V69.4H86.8988V74.2C86.8988 78.7333 88.7988 81 92.5988 81C94.4655 81 95.8655 80.4667 96.7988 79.4C97.7988 78.2667 98.2988 76.4667 98.2988 74C98.2988 71.0667 97.6322 68.5 96.2988 66.3C94.9655 64.0333 92.4988 61.3333 88.8988 58.2C84.3655 54.2 81.1988 50.6 79.3988 47.4C77.5988 44.1333 76.6988 40.4667 76.6988 36.4C76.6988 30.8667 78.0988 26.6 80.8988 23.6C83.6988 20.5333 87.7655 19 93.0988 19C98.3655 19 102.332 20.5333 104.999 23.6C107.732 26.6 109.099 30.9333 109.099 36.6V39.5H98.6988V35.9C98.6988 33.5 98.2322 31.7667 97.2988 30.7C96.3655 29.5667 94.9988 29 93.1988 29C89.5322 29 87.6988 31.2333 87.6988 35.7C87.6988 38.2333 88.3655 40.6 89.6988 42.8C91.0988 45 93.5988 47.6667 97.1988 50.8C101.799 54.8 104.965 58.4333 106.699 61.7C108.432 64.9667 109.299 68.8 109.299 73.2C109.299 78.9333 107.865 83.3333 104.999 86.4C102.199 89.4667 98.0988 91 92.6988 91ZM127.813 20H142.713L154.113 90H143.113L141.113 76.1V76.3H128.613L126.613 90H116.413L127.813 20ZM139.813 66.8L134.913 32.2H134.713L129.913 66.8H139.813ZM163.45 20H174.45V90H163.45V20ZM186.688 20H197.688V80H215.788V90H186.688V20ZM225.063 20H236.063V90H225.063V20ZM248.301 20H262.101L272.801 61.9H273.001V20H282.801V90H271.501L258.301 38.9H258.101V90H248.301V20ZM310.577 91C305.244 91 301.177 89.5 298.377 86.5C295.577 83.4333 294.177 79.0667 294.177 73.4V36.6C294.177 30.9333 295.577 26.6 298.377 23.6C301.177 20.5333 305.244 19 310.577 19C315.91 19 319.977 20.5333 322.777 23.6C325.577 26.6 326.977 30.9333 326.977 36.6V42.6H316.577V35.9C316.577 31.3 314.677 29 310.877 29C307.077 29 305.177 31.3 305.177 35.9V74.2C305.177 78.7333 307.077 81 310.877 81C314.677 81 316.577 78.7333 316.577 74.2V60.5H311.077V50.5H326.977V73.4C326.977 79.0667 325.577 83.4333 322.777 86.5C319.977 89.5 315.91 91 310.577 91ZM366.655 30H355.155V20H389.155V30H377.655V90H366.655V30ZM398.481 20H409.481V48.5H421.281V20H432.281V90H421.281V58.5H409.481V90H398.481V20ZM444.473 20H474.473V30H455.473V48.5H470.573V58.5H455.473V80H474.473V90H444.473V20Z" fill="#36B9C5"/>
<path d="M892.431 91C887.098 91 883.065 89.5 880.331 86.5C877.598 83.4333 876.231 79.0667 876.231 73.4V69.4H886.631V74.2C886.631 78.7333 888.531 81 892.331 81C894.198 81 895.598 80.4667 896.531 79.4C897.531 78.2667 898.031 76.4667 898.031 74C898.031 71.0667 897.365 68.5 896.031 66.3C894.698 64.0333 892.231 61.3333 888.631 58.2C884.098 54.2 880.931 50.6 879.131 47.4C877.331 44.1333 876.431 40.4667 876.431 36.4C876.431 30.8667 877.831 26.6 880.631 23.6C883.431 20.5333 887.498 19 892.831 19C898.098 19 902.065 20.5333 904.731 23.6C907.465 26.6 908.831 30.9333 908.831 36.6V39.5H898.431V35.9C898.431 33.5 897.965 31.7667 897.031 30.7C896.098 29.5667 894.731 29 892.931 29C889.265 29 887.431 31.2333 887.431 35.7C887.431 38.2333 888.098 40.6 889.431 42.8C890.831 45 893.331 47.6667 896.931 50.8C901.531 54.8 904.698 58.4333 906.431 61.7C908.165 64.9667 909.031 68.8 909.031 73.2C909.031 78.9333 907.598 83.3333 904.731 86.4C901.931 89.4667 897.831 91 892.431 91ZM919.338 20H930.338V90H919.338V20ZM942.577 20H953.577V80H971.677V90H942.577V20ZM980.952 20H991.952V90H980.952V20ZM1019.69 91C1014.42 91 1010.39 89.5 1007.59 86.5C1004.86 83.5 1003.49 79.2667 1003.49 73.8V36.2C1003.49 30.7333 1004.86 26.5 1007.59 23.5C1010.39 20.5 1014.42 19 1019.69 19C1024.96 19 1028.96 20.5 1031.69 23.5C1034.49 26.5 1035.89 30.7333 1035.89 36.2V43.6H1025.49V35.5C1025.49 31.1667 1023.66 29 1019.99 29C1016.32 29 1014.49 31.1667 1014.49 35.5V74.6C1014.49 78.8667 1016.32 81 1019.99 81C1023.66 81 1025.49 78.8667 1025.49 74.6V63.9H1035.89V73.8C1035.89 79.2667 1034.49 83.5 1031.69 86.5C1028.96 89.5 1024.96 91 1019.69 91ZM1062.57 91C1057.17 91 1053.03 89.4667 1050.17 86.4C1047.3 83.3333 1045.87 79 1045.87 73.4V36.6C1045.87 31 1047.3 26.6667 1050.17 23.6C1053.03 20.5333 1057.17 19 1062.57 19C1067.97 19 1072.1 20.5333 1074.97 23.6C1077.83 26.6667 1079.27 31 1079.27 36.6V73.4C1079.27 79 1077.83 83.3333 1074.97 86.4C1072.1 89.4667 1067.97 91 1062.57 91ZM1062.57 81C1066.37 81 1068.27 78.7 1068.27 74.1V35.9C1068.27 31.3 1066.37 29 1062.57 29C1058.77 29 1056.87 31.3 1056.87 35.9V74.1C1056.87 78.7 1058.77 81 1062.57 81ZM1090.71 20H1104.51L1115.21 61.9H1115.41V20H1125.21V90H1113.91L1100.71 38.9H1100.51V90H1090.71V20ZM1171.7 91C1166.36 91 1162.33 89.5 1159.6 86.5C1156.86 83.4333 1155.5 79.0667 1155.5 73.4V69.4H1165.9V74.2C1165.9 78.7333 1167.8 81 1171.6 81C1173.46 81 1174.86 80.4667 1175.8 79.4C1176.8 78.2667 1177.3 76.4667 1177.3 74C1177.3 71.0667 1176.63 68.5 1175.3 66.3C1173.96 64.0333 1171.5 61.3333 1167.9 58.2C1163.36 54.2 1160.2 50.6 1158.4 47.4C1156.6 44.1333 1155.7 40.4667 1155.7 36.4C1155.7 30.8667 1157.1 26.6 1159.9 23.6C1162.7 20.5333 1166.76 19 1172.1 19C1177.36 19 1181.33 20.5333 1184 23.6C1186.73 26.6 1188.1 30.9333 1188.1 36.6V39.5H1177.7V35.9C1177.7 33.5 1177.23 31.7667 1176.3 30.7C1175.36 29.5667 1174 29 1172.2 29C1168.53 29 1166.7 31.2333 1166.7 35.7C1166.7 38.2333 1167.36 40.6 1168.7 42.8C1170.1 45 1172.6 47.6667 1176.2 50.8C1180.8 54.8 1183.96 58.4333 1185.7 61.7C1187.43 64.9667 1188.3 68.8 1188.3 73.2C1188.3 78.9333 1186.86 83.3333 1184 86.4C1181.2 89.4667 1177.1 91 1171.7 91ZM1198.6 20H1228.6V30H1209.6V48.5H1224.7V58.5H1209.6V80H1228.6V90H1198.6V20ZM1247.43 20H1262.33L1273.73 90H1262.73L1260.73 76.1V76.3H1248.23L1246.23 90H1236.03L1247.43 20ZM1259.43 66.8L1254.53 32.2H1254.33L1249.53 66.8H1259.43Z" fill="#36B9C5"/>
</svg>
