<svg width="1215" height="246" viewBox="0 0 1215 246" fill="none" xmlns="http://www.w3.org/2000/svg">
<path d="M247.334 148.23V182.66H308.972V153.363L277.854 141.472L247.334 148.23ZM350.323 116.79L349.656 117.025L324.514 125.907L353.418 142.563L353.919 142.852V219.643H202.555V62.6982L203.988 63.3867L246.768 83.9258L247.334 84.1982V110.642L308.972 95.1729V73.3711H246.104L245.897 73.2705L186.962 44.6279L187.399 42.7285H329.655L329.938 42.9766L349.982 60.5381L350.323 60.8369V116.79Z" fill="white" stroke="#36B9C5" stroke-width="2"/>
<path d="M476.357 69.6524L451.275 43.7285H519.538V176.736H476.357V69.6524Z" fill="white" stroke="#36B9C5" stroke-width="2"/>
<path d="M782.072 69.634L756.99 43.7285H825.253V219.372H782.072V69.634Z" fill="white" stroke="#36B9C5" stroke-width="2"/>
<path d="M376.516 69.7068L351.451 43.7285H419.67V187.382H602.104L618.264 219.007H419.67H376.516V69.7068Z" fill="white" stroke="#36B9C5" stroke-width="2"/>
<path d="M559.648 66.6049L529.814 43.7285H600.972L689.264 219.007H634.233L559.648 66.6049Z" fill="white"/>
<path d="M697.933 219.007L665.478 156.834L696.32 43.7285H746.715L697.933 219.007Z" fill="white"/>
<path d="M559.648 66.6049L529.814 43.7285H600.972L689.264 219.007H634.233L559.648 66.6049Z" stroke="#36B9C5" stroke-width="2"/>
<path d="M697.933 219.007L665.478 156.834L696.32 43.7285H746.715L697.933 219.007Z" stroke="#36B9C5" stroke-width="2"/>
<path d="M45.9873 98.2656L45.9932 162.03L93.043 182.951L133.173 162.074V98.2256L93.0459 80.5L45.9873 98.2656ZM181.793 184.742L181.16 184.992L93.4502 219.573L93.0898 219.716L92.7275 219.577L2.07227 184.996L1.42871 184.75V78.7393L2.0625 78.4893L92.7109 42.7979L93.083 42.6514L93.4541 42.8027L181.17 78.4932L181.793 78.7471V184.742Z" fill="white" stroke="#36B9C5" stroke-width="2"/>
<path d="M888.998 98.2656L889.004 162.03L936.054 182.951L976.184 162.074V98.2256L936.057 80.5L888.998 98.2656ZM1024.8 184.742L1024.17 184.992L936.461 219.573L936.101 219.716L935.738 219.577L845.083 184.996L844.439 184.75V78.7393L845.073 78.4893L935.722 42.7979L936.094 42.6514L936.465 42.8027L1024.18 78.4932L1024.8 78.7471V184.742Z" fill="white" stroke="#36B9C5" stroke-width="2"/>
<path d="M505.633 9.09082V24.7988L489.629 32.7725L473.625 24.7988V9.09082L489.629 1.11719L505.633 9.09082Z" fill="white" stroke="#36B9C5" stroke-width="2"/>
<path d="M811.347 9.09082V24.7988L795.343 32.7725L779.339 24.7988V9.09082L795.343 1.11719L811.347 9.09082Z" fill="white" stroke="#36B9C5" stroke-width="2"/>
<path d="M1046.9 73.2344L988.205 44.6072H1069.41L1213.55 188.265V243.058L1091.52 125.601V219.732H1046.9V73.2344Z" fill="white"/>
<path d="M1213.55 176.336L1169.96 132.502V64.6127L1213.55 14.5762V176.336Z" fill="white"/>
<path d="M1046.9 73.2344L988.205 44.6072H1069.41L1213.55 188.265V243.058L1091.52 125.601V219.732H1046.9V73.2344Z" stroke="#36B9C5" stroke-width="2"/>
<path d="M1213.55 176.336L1169.96 132.502V64.6127L1213.55 14.5762V176.336Z" stroke="#36B9C5" stroke-width="2"/>
</svg>
