<svg width="488" height="105" viewBox="0 0 488 105" fill="none" xmlns="http://www.w3.org/2000/svg">
<g filter="url(#filter0_d_421_44)">
<path d="M77.29 17.3262H133.506L141.448 24.2846V45.9947L130.674 49.8007L142.873 56.8303V86.6316H83.6913V25.4723L100.642 33.6106V44.347L125.856 38.0188V28.6749H100.642L77.29 17.3262ZM113.161 55.6422L100.642 58.4144V72.7705H125.856V60.4936L113.161 55.6422Z" fill="#36B9C5"/>
<path d="M191.782 27.5979L181.844 17.3262H208.891V70.0272H191.782V27.5979Z" fill="#36B9C5"/>
<path d="M312.913 27.5906L302.976 17.3262H330.023V86.9204H312.913V27.5906Z" fill="#36B9C5"/>
<path d="M152.223 27.6194L142.292 17.3262H169.322V74.2451H241.606L248.009 86.776H169.322H152.223V27.6194Z" fill="#36B9C5"/>
<path d="M224.784 26.3904L212.963 17.3262H241.158L276.141 86.776H254.337L224.784 26.3904Z" fill="#36B9C5"/>
<path d="M279.576 86.776L266.717 62.1415L278.937 17.3262H298.905L279.576 86.776Z" fill="#36B9C5"/>
<path d="M4 31.4679L39.9171 17.3262L74.6724 31.4679V72.9296L39.9197 86.6316L4 72.9296V31.4679ZM56.2003 64.4579V38.6612L39.9171 31.4679L20.8628 38.6612L20.8654 64.4579L39.9171 72.9296L56.2003 64.4579Z" fill="#36B9C5"/>
<path d="M338.021 31.4679L373.939 17.3262L408.694 31.4679V72.9296L373.941 86.6316L338.021 72.9296V31.4679ZM390.222 64.4579V38.6612L373.939 31.4679L354.884 38.6612L354.887 64.4579L373.939 72.9296L390.222 64.4579Z" fill="#36B9C5"/>
<path d="M197.041 0L203.779 3.35698V10.0709L197.041 13.4279L190.304 10.0709V3.35698L197.041 0Z" fill="#36B9C5"/>
<path d="M318.173 0L324.91 3.35698V10.0709L318.173 13.4279L311.435 10.0709V3.35698L318.173 0Z" fill="#36B9C5"/>
<path d="M417.845 29.0177L394.589 17.6749H426.763L483.875 74.5956V96.3061L435.524 49.7668V87.0635H417.845V29.0177Z" fill="#36B9C5"/>
<path d="M483.875 69.8692L466.605 52.5012V25.6016L483.875 5.77588V69.8692Z" fill="#36B9C5"/>
</g>
<defs>
<filter id="filter0_d_421_44" x="0" y="0" width="487.875" height="104.306" filterUnits="userSpaceOnUse" color-interpolation-filters="sRGB">
<feFlood flood-opacity="0" result="BackgroundImageFix"/>
<feColorMatrix in="SourceAlpha" type="matrix" values="0 0 0 0 0 0 0 0 0 0 0 0 0 0 0 0 0 0 127 0" result="hardAlpha"/>
<feOffset dy="4"/>
<feGaussianBlur stdDeviation="2"/>
<feComposite in2="hardAlpha" operator="out"/>
<feColorMatrix type="matrix" values="0 0 0 0 0 0 0 0 0 0 0 0 0 0 0 0 0 0 0.25 0"/>
<feBlend mode="normal" in2="BackgroundImageFix" result="effect1_dropShadow_421_44"/>
<feBlend mode="normal" in="SourceGraphic" in2="effect1_dropShadow_421_44" result="shape"/>
</filter>
</defs>
</svg>
